<svg version="1.1" baseProfile="tiny" id="Ebene_1" xmlns="http://www.w3.org/2000/svg" xmlns:xlink="http://www.w3.org/1999/xlink" x="0" y="0" viewBox="0 0 441.1 306.3" overflow="scroll" xml:space="preserve"><path fill="#B51F1F" d="M174.6,0h92c100.2,0,174.6,66,174.6,153.1s-74.4,153.1-174.6,153.1h-92C74.4,306.3,0,240.2,0,153.1	S74.4,0,174.6,0L174.6,0z"/><polygon fill="#FFF" points="147,188.6 147,120.1 133.9,120.1 133.9,188.6 147,188.6"/><polygon fill="#FFF" points="177.4,188.6 192.3,188.6 209.7,120.1 196.9,120.1 185,169 172.8,120.1 159.9,120.1 177.4,188.6"/><polygon fill="#FFF" points="290.2,188.6 290.2,144.4 310.4,188.6 322.9,188.6 322.9,120.1 311,120.1 311,160.7 292.6,120.1 278.2,120.1 278.2,188.6 290.2,188.6"/><polygon fill="#FFF" points="75,188.6 75,139.8 103.2,188.6 115.8,188.6 115.8,107.5 103.5,113.5 103.5,166.8 76.4,120.1 62.7,120.1 62.7,188.6 75,188.6"/><path fill-rule="evenodd" fill="#FFF" d="M232.9,140.4c0-7.6,3.3-9.7,8.5-9.7c5.2,0,8.5,2.1,8.5,9.7v27.9c0,7.6-3.3,9.7-8.5,9.7	c-5.2,0-8.5-2.1-8.5-9.7V140.4L232.9,140.4z M219.8,166.6c0,16.9,8.9,22.9,21.6,22.9c12.7,0,21.6-6.1,21.6-22.9v-24.5	c0-16.9-8.9-22.9-21.6-22.9c-12.7,0-21.6,6.1-21.6,22.9V166.6L219.8,166.6z"/><path fill-rule="evenodd" fill="#FFF" d="M357.9,134.9l6.5,27.7h-13L357.9,134.9L357.9,134.9z M345.4,188.6l3.7-14.4h18.1	l3.3,14.4H383l-16.5-68.4h-16.8l-17,68.4H345.4L345.4,188.6z"/></svg>