<?xml version="1.0" encoding="UTF-8" standalone="no"?>
<!DOCTYPE svg PUBLIC "-//W3C//DTD SVG 1.0//EN" "http://www.w3.org/TR/2001/REC-SVG-20010904/DTD/svg10.dtd">

<svg
   xmlns:svg="http://www.w3.org/2000/svg"
   xmlns="http://www.w3.org/2000/svg"
   version="1.0"
   width="1024"
   height="211"
   viewBox="-0.551475 -0.551475 94.705451 19.48545"
   id="svg2973">
  <defs
     id="defs2975" />
  <path
     d="M 88.08,11.2 C 88.08,12.98125 86.97,13.85875 85.835,13.85875 C 84.725,13.85875 83.615,12.98125 83.615,11.2 C 83.615,9.47125 84.69875,8.51625 85.835,8.51625 C 86.99625,8.51625 88.08,9.47125 88.08,11.2 z M 93.6025,11.14875 C 93.6025,7.845 90.8925,4 85.86,4 C 80.75125,4 78.0925,7.94875 78.0925,11.17375 C 78.0925,14.45125 80.77625,18.375 85.835,18.375 C 90.8925,18.375 93.6025,14.4775 93.6025,11.14875"
     id="path2533"
     style="fill:#d71921;fill-opacity:1;fill-rule:evenodd;stroke:none" />
  <path
     d="M 77.6075,9.34 L 77.605,4.975 C 76.505,4.36875 75.16125,4 73.605,4 C 68.495,4 65.8375,7.9475 65.8375,11.17375 C 65.8375,14.45125 68.52125,18.37375 73.58,18.37375 C 75.1525,18.37375 76.4975,17.99625 77.605,17.3775 L 77.605,13.01125 C 77.605,13.01125 75.63625,13.79375 74.49375,13.79375 C 72.39625,13.79375 71.36125,12.48625 71.36125,11.15 C 71.36125,9.8425 72.39375,8.535 74.49125,8.535 C 75.6575,8.535 77.6075,9.34 77.6075,9.34"
     id="path2537"
     style="fill:#d71921;fill-opacity:1;fill-rule:nonzero;stroke:none" />
  <path
     d="M 3.84875,16.67625 L 4.045,16.80875 C 5.51375,17.8025 7.285,18.3825 9.19,18.3825 C 14.26625,18.3825 18.38,14.26875 18.38,9.1925 C 18.38,6.45875 17.18625,4.00375 15.2925,2.32125 L 3.50375,8.58375 L 3.50375,11.6775 L 15.0975,5.53125 C 15.75875,6.595 16.14,7.84875 16.14,9.1925 C 16.14,13.03125 13.0275,16.1425 9.19,16.1425 C 8.11125,16.1425 7.08875,15.89625 6.1775,15.4575 L 3.84875,16.67625"
     id="path2541"
     style="fill:#d71921;fill-opacity:1;fill-rule:nonzero;stroke:none" />
  <path
     d="M 12.1825,2.92 C 11.27625,2.48625 10.26125,2.24375 9.18875,2.24375 C 5.35125,2.24375 2.24,5.355 2.24,9.1925 C 2.24,10.5325 2.61875,11.78375 3.275,12.845 L 3.26875,12.8525 L 14.945,6.6575 L 14.94,9.75125 L 3.07875,16.0575 C 1.19,14.375 0,11.9225 0,9.1925 C 0,4.1175 4.11375,0.00375 9.18875,0.00375 C 11.09,0.00375 12.85625,0.58 14.3225,1.57 L 14.52,1.70375 L 12.1825,2.92"
     id="path2545"
     style="fill:#d71921;fill-opacity:1;fill-rule:nonzero;stroke:none" />
  <path
     d="M 23.9425,17.15625 C 24.6675,17.545 26.19375,18.3725 29.42875,18.3725 C 35.76875,18.3725 36.28625,13.92125 36.28625,13.0425 C 36.28625,10.22125 33.85375,8.82375 32.53375,8.07375 C 30.90375,7.1425 29.86875,6.5725 29.86875,5.6925 C 29.86875,5.20125 30.30875,4.555 31.34375,4.555 C 32.89625,4.555 34.5525,5.92625 35.51,6.83125 L 35.51,2.04375 C 34.39625,1.00875 32.5075,0 30.17875,0 C 26.6075,0 24.02,2.1475 24.02,5.56375 C 24.02,6.31375 24.02,8.41 26.91875,10.14375 C 29.22125,11.515 29.97125,11.955 29.97125,12.705 C 29.97125,13.0675 29.6875,13.81875 28.0825,13.81875 C 26.5825,13.81875 25.185,13.1975 23.9425,12.34375 L 23.9425,17.15625"
     id="path2549"
     style="fill:#d71921;fill-opacity:1;fill-rule:nonzero;stroke:none" />
  <path
     d="M 58.51125,7.67875 C 59.47625,7.67875 60.3775,8.4725 60.3775,9.91 L 56.66875,9.91 C 56.66875,8.4725 57.5675,7.67875 58.51125,7.67875 z M 65.1625,12.18875 C 65.47625,7.3875 61.985,4.06625 58.37875,4.06625 C 54.30375,4.06625 51.2675,7.1025 51.2675,11.0925 C 51.2675,15.1675 54.38875,18.37375 59.09125,18.37375 C 61.75625,18.37375 63.495,17.975 65.03375,17.22 L 65.0625,13.72875 C 63.495,14.5125 61.51375,14.92625 60.1025,14.92625 C 57.99375,14.92625 56.56875,13.6 56.66875,12.18875 L 65.1625,12.18875"
     id="path2553"
     style="fill:#d71921;fill-opacity:1;fill-rule:nonzero;stroke:none" />
  <path
     d="M 45.3575,13.36125 C 45.28625,14.685 44.45375,15.3475 43.38375,15.3475 C 42.5275,15.3475 41.91,14.75875 41.91,14.17 C 41.91,13.3125 42.45625,13.0425 43.5025,12.7975 C 44.145,12.65 44.78625,12.47875 45.3575,12.18375 L 45.3575,13.36125 z M 51.2,14.33125 C 50.52,14.235 50.265,13.95125 50.28375,12.44625 L 50.28125,9.32375 C 50.28125,5.25375 46.6025,3.9975 44.03125,3.9975 C 42.76875,3.9975 39.3575,4.32 38.12,6.495 C 37.6625,7.3 37.47875,7.82875 37.44125,8.77125 L 41.8075,8.77125 C 42.12125,7.84875 42.8675,7.3525 43.645,7.3525 C 44.30625,7.3525 44.93375,7.69625 45.31875,8.345 C 45.37875,8.44875 45.41,8.56125 45.41,8.68125 C 45.41,9.5325 44.85,9.7 44.17375,9.83 C 41.64625,10.32 36.87875,10.165 36.87875,14.39875 C 36.87875,16.97875 38.9175,18.37375 41.42125,18.37375 C 43.0225,18.37375 44.43375,18.08875 45.485,16.85 L 45.6,16.99875 C 46.06625,17.44 46.88125,18.115 49.45125,18.115 L 51.20125,18.115 L 51.2,14.33125"
     id="path2557"
     style="fill:#d71921;fill-opacity:1;fill-rule:nonzero;stroke:none" />
</svg>

